<svg width="100px" height="100px" viewBox="0 0 100 100" version="1.1" xmlns="http://www.w3.org/2000/svg" xmlns:xlink="http://www.w3.org/1999/xlink"><defs><path d="M46.1344164,2.66453526e-15 C34.7422453,12.546519 18.3453239,20.476324 0.0913764028,20.6455146 C3.3870845,16.9059914 5.38563331,12.0012694 5.38563331,6.63095073 C5.38563331,4.31537783 5.01407108,2.0863668 4.32717225,-2.00195416e-12 L46.1344164,0 Z" id="path-1"></path><path d="M0.0911978064,26.1523838 C3.3804644,22.4036146 5.37510702,17.4867655 5.37510702,12.1031686 C5.37510702,8.73692896 3.57220328,4.49917786 2.18363723,1.66935976 C2.15068066,1.60219617 4.06497034,1.14711697 4.03133027,1.08035442 C3.85722392,0.73482064 3.67170524,0.398258637 3.47531913,0.070630989 L15.2999276,0.070630989 C15.7616941,1.81591117 16.0077411,3.64915112 16.0077411,5.53996626 C16.0077411,15.4521483 9.24599957,23.782078 0.0916952266,26.1523792 Z" id="path-4"></path><linearGradient x1="50%" y1="0%" x2="50%" y2="100%" id="linearGradient-6"><stop stop-color="#0084FF" offset="0%"></stop><stop stop-color="#0069CC" offset="100%"></stop></linearGradient><circle id="path-7" cx="43.0664062" cy="43.0664062" r="43.0664062"></circle></defs><g id="Assets" stroke="none" stroke-width="1" fill="none" fill-rule="evenodd"><g id="icon"><g id="Logo" transform="translate(6.933594, 6.933594)"><g id="Big-arrow" transform="translate(2.163153, 65.484536)"><mask id="mask-2" fill="white"><use xlink:href="#path-1"></use></mask><use id="Mask" fill="#FFFFFF" xlink:href="#path-1"></use><rect id="Rectangle-21-Copy-3" fill="url(#linearGradient-6)" mask="url(#mask-2)" x="-2.18791353" y="-65.3022743" width="86.170133" height="85.9505513"></rect></g><path d="M24.3846318,81.9055467 C17.5130168,84.5694836 10.0567511,86.0604634 2.26147795,86.1328125 C5.55383205,82.3920854 7.55034695,77.4857844 7.55034695,72.1137369 C7.55034695,70.0874192 7.26628837,68.1273667 6.735774,66.2711366 C11.0331063,72.9847183 17.146741,78.4265912 24.3846318,81.9055467 Z" id="Arrow-shade-overlay" fill="#005CB3"></path><g id="Small-arrow" transform="translate(2.064828, 59.977659)"><mask id="mask-5" fill="white"><use xlink:href="#path-4"></use></mask><use id="Mask" fill="#FFFFFF" xlink:href="#path-4"></use><rect id="Rectangle-21-Copy" fill="url(#linearGradient-6)" mask="url(#mask-5)" x="-2.18363723" y="-60.0079133" width="86.0017123" height="86.1630664"></rect></g><g id="Circle"><mask id="mask-8" fill="white"><use xlink:href="#path-7"></use></mask><use id="Mask" fill="#FFFFFF" xlink:href="#path-7"></use><rect id="Rectangle-21-Copy-2" fill="url(#linearGradient-6)" mask="url(#mask-8)" x="0" y="0" width="86.1328125" height="86.1328125"></rect></g><path d="M21.1861733,51.1290668 C24.9043637,51.1290668 27.9185526,48.1135831 27.9185526,44.3937955 C27.9185526,40.6740079 24.9043637,37.6585242 21.1861733,37.6585242 C17.4679828,37.6585242 14.4537939,40.6740079 14.4537939,44.3937955 C14.4537939,48.1135831 17.4679828,51.1290668 21.1861733,51.1290668 Z M43.0664062,51.1290668 C46.7845967,51.1290668 49.7987856,48.1135831 49.7987856,44.3937955 C49.7987856,40.6740079 46.7845967,37.6585242 43.0664062,37.6585242 C39.3482158,37.6585242 36.3340269,40.6740079 36.3340269,44.3937955 C36.3340269,48.1135831 39.3482158,51.1290668 43.0664062,51.1290668 Z M64.9466392,51.1290668 C68.6648297,51.1290668 71.6790186,48.1135831 71.6790186,44.3937955 C71.6790186,40.6740079 68.6648297,37.6585242 64.9466392,37.6585242 C61.2284488,37.6585242 58.2142599,40.6740079 58.2142599,44.3937955 C58.2142599,48.1135831 61.2284488,51.1290668 64.9466392,51.1290668 Z" id="Oval-20" fill="#B3DAFF"></path></g></g></g></svg>